# xmcd
#
# Track frame offsets:
#	150
#	20333
#	42495
#	61025
#	73408
#	94330
#	115864
#	133496
#	147643
#	164405
#	180088
#	203580
#	225561
#	241169
#	260297
#	279281
#	292857
#	308927
#	329111
#
# Disc length: 4591 seconds
#
# Revision: 0
# Processed by: cddbd v1.5.2PL0 Copyright (c) Steve Scherf et al.
# Submitted via: audiograbber 1.83.01
#
DISCID=1a11ed13
DTITLE=Tim McGraw - XT91
DYEAR=1900
DGENRE=Karaoke
TTITLE0=Angry all the time
TTITLE1=Back when
TTITLE2=Don't take the girl
TTITLE3=Down on the farm
TTITLE4=Drugs of Jesus
TTITLE5=Everywhere
TTITLE6=Grown men don't cry
TTITLE7=I like it, I love you
TTITLE8=It's your love
TTITLE9=Just to see you smile
TTITLE10=Live like you were dying
TTITLE11=My best friend
TTITLE12=My next 30 years
TTITLE13=Real good man
TTITLE14=She's my kind of rain
TTITLE15=Something Like that
TTITLE16=The cowboy in me
TTITLE17=Watch the wind blow by
TTITLE18=Where the green grass blows
EXTD=
EXTT0=
EXTT1=
EXTT2=
EXTT3=
EXTT4=
EXTT5=
EXTT6=
EXTT7=
EXTT8=
EXTT9=
EXTT10=
EXTT11=
EXTT12=
EXTT13=
EXTT14=
EXTT15=
EXTT16=
EXTT17=
EXTT18=
PLAYORDER=
